<svg xmlns="http://www.w3.org/2000/svg" viewBox="-50 -55 100 85" fill="#7a6fa8">
  <!-- main metacarpal pad -->
  <path d="M0,22 C-22,22 -36,11 -36,-4 C-36,-20 -23,-27 -10,-22 C-6,-20 -2,-15 0,-11 C2,-15 6,-20 10,-22 C23,-27 36,-20 36,-4 C36,11 22,22 0,22 Z"/>
  <!-- four toe pads -->
  <ellipse cx="-37" cy="-25" rx="9" ry="13" transform="rotate(-35 -37 -25)"/>
  <ellipse cx="-17" cy="-38" rx="8" ry="11" transform="rotate(-12 -17 -38)"/>
  <ellipse cx="17" cy="-38" rx="8" ry="11" transform="rotate(12 17 -38)"/>
  <ellipse cx="37" cy="-25" rx="9" ry="13" transform="rotate(35 37 -25)"/>
</svg>
