<svg xmlns="http://www.w3.org/2000/svg" viewBox="0 0 1024 1024" fill="none">
  <rect width="1024" height="1024" fill="transparent"/>

  <g fill="#7a6fa8" opacity="0.23" transform="translate(0 0)">
    <g transform="translate(60 70) rotate(-8 40 60)">
      <circle cx="20" cy="18" r="11"/>
      <circle cx="46" cy="9" r="11"/>
      <circle cx="70" cy="20" r="11"/>
      <circle cx="92" cy="40" r="11"/>
      <ellipse cx="50" cy="56" rx="26" ry="30"/>
    </g>

    <g transform="translate(230 58) rotate(12 50 50)">
      <circle cx="18" cy="20" r="9"/>
      <circle cx="38" cy="8" r="9"/>
      <circle cx="58" cy="8" r="9"/>
      <circle cx="78" cy="20" r="9"/>
      <ellipse cx="48" cy="45" rx="20" ry="24"/>
    </g>

    <g transform="translate(420 74) rotate(-14 50 50)">
      <circle cx="22" cy="14" r="8"/>
      <circle cx="42" cy="4" r="8"/>
      <circle cx="62" cy="4" r="8"/>
      <circle cx="82" cy="16" r="8"/>
      <ellipse cx="52" cy="44" rx="22" ry="25"/>
      <path d="M52 68c12 5 20 14 22 26" stroke="#7a6fa8" stroke-width="10" stroke-linecap="round"/>
    </g>

    <g transform="translate(618 52) rotate(8 50 50)">
      <circle cx="18" cy="22" r="10"/>
      <circle cx="38" cy="10" r="10"/>
      <circle cx="58" cy="10" r="10"/>
      <circle cx="78" cy="22" r="10"/>
      <ellipse cx="48" cy="46" rx="24" ry="28"/>
    </g>

    <g transform="translate(808 76) rotate(-10 50 50)">
      <circle cx="22" cy="18" r="9"/>
      <circle cx="42" cy="7" r="9"/>
      <circle cx="62" cy="7" r="9"/>
      <circle cx="82" cy="18" r="9"/>
      <ellipse cx="52" cy="44" rx="23" ry="27"/>
    </g>
  </g>

  <g fill="#7a6fa8" opacity="0.20">
    <g transform="translate(110 262) rotate(10 50 50)">
      <circle cx="18" cy="20" r="10"/>
      <circle cx="38" cy="8" r="10"/>
      <circle cx="58" cy="8" r="10"/>
      <circle cx="78" cy="20" r="10"/>
      <ellipse cx="48" cy="45" rx="23" ry="28"/>
    </g>

    <g transform="translate(320 256) rotate(-12 50 50)">
      <circle cx="20" cy="14" r="8"/>
      <circle cx="42" cy="6" r="8"/>
      <circle cx="62" cy="6" r="8"/>
      <circle cx="84" cy="16" r="8"/>
      <ellipse cx="52" cy="40" rx="18" ry="24"/>
      <path d="M48 65c-6 8-8 18-6 30" stroke="#7a6fa8" stroke-width="8" stroke-linecap="round"/>
    </g>

    <g transform="translate(520 254) rotate(6 50 50)">
      <circle cx="16" cy="18" r="9"/>
      <circle cx="36" cy="6" r="9"/>
      <circle cx="56" cy="6" r="9"/>
      <circle cx="76" cy="18" r="9"/>
      <ellipse cx="46" cy="42" rx="21" ry="26"/>
    </g>

    <g transform="translate(740 258) rotate(-8 50 50)">
      <circle cx="20" cy="20" r="10"/>
      <circle cx="40" cy="8" r="10"/>
      <circle cx="60" cy="8" r="10"/>
      <circle cx="80" cy="20" r="10"/>
      <ellipse cx="50" cy="46" rx="24" ry="28"/>
    </g>

    <g transform="translate(896 250) rotate(14 50 50)">
      <circle cx="18" cy="18" r="8"/>
      <circle cx="38" cy="6" r="8"/>
      <circle cx="58" cy="6" r="8"/>
      <circle cx="78" cy="18" r="8"/>
      <ellipse cx="48" cy="42" rx="20" ry="24"/>
    </g>
  </g>

  <g fill="#7a6fa8" opacity="0.18">
    <g transform="translate(86 486) rotate(-10 50 50)">
      <circle cx="18" cy="20" r="9"/>
      <circle cx="40" cy="8" r="9"/>
      <circle cx="60" cy="8" r="9"/>
      <circle cx="82" cy="20" r="9"/>
      <ellipse cx="50" cy="46" rx="24" ry="29"/>
    </g>

    <g transform="translate(280 474) rotate(8 50 50)">
      <circle cx="20" cy="18" r="8"/>
      <circle cx="42" cy="6" r="8"/>
      <circle cx="62" cy="6" r="8"/>
      <circle cx="84" cy="18" r="8"/>
      <ellipse cx="52" cy="42" rx="18" ry="24"/>
      <path d="M56 66c4 14 14 20 26 28" stroke="#7a6fa8" stroke-width="8" stroke-linecap="round"/>
    </g>

    <g transform="translate(560 474) rotate(-6 50 50)">
      <circle cx="18" cy="16" r="9"/>
      <circle cx="38" cy="6" r="9"/>
      <circle cx="58" cy="6" r="9"/>
      <circle cx="78" cy="16" r="9"/>
      <ellipse cx="48" cy="40" rx="23" ry="27"/>
    </g>

    <g transform="translate(760 486) rotate(12 50 50)">
      <circle cx="20" cy="20" r="10"/>
      <circle cx="40" cy="8" r="10"/>
      <circle cx="60" cy="8" r="10"/>
      <circle cx="80" cy="20" r="10"/>
      <ellipse cx="50" cy="46" rx="24" ry="28"/>
    </g>
  </g>

  <g fill="#7a6fa8" opacity="0.16">
    <g transform="translate(132 742) rotate(10 50 50)">
      <circle cx="18" cy="20" r="10"/>
      <circle cx="40" cy="8" r="10"/>
      <circle cx="60" cy="8" r="10"/>
      <circle cx="82" cy="20" r="10"/>
      <ellipse cx="50" cy="46" rx="24" ry="29"/>
    </g>

    <g transform="translate(372 724) rotate(-12 50 50)">
      <circle cx="20" cy="18" r="8"/>
      <circle cx="42" cy="6" r="8"/>
      <circle cx="62" cy="6" r="8"/>
      <circle cx="84" cy="18" r="8"/>
      <ellipse cx="52" cy="42" rx="21" ry="24"/>
    </g>

    <g transform="translate(620 736) rotate(8 50 50)">
      <circle cx="18" cy="20" r="9"/>
      <circle cx="40" cy="8" r="9"/>
      <circle cx="60" cy="8" r="9"/>
      <circle cx="82" cy="20" r="9"/>
      <ellipse cx="50" cy="46" rx="24" ry="28"/>
      <path d="M52 68c10 14 18 22 28 30" stroke="#7a6fa8" stroke-width="8" stroke-linecap="round"/>
    </g>

    <g transform="translate(852 724) rotate(-8 50 50)">
      <circle cx="20" cy="16" r="10"/>
      <circle cx="40" cy="6" r="10"/>
      <circle cx="60" cy="6" r="10"/>
      <circle cx="80" cy="16" r="10"/>
      <ellipse cx="50" cy="40" rx="24" ry="28"/>
    </g>
  </g>
</svg>
