<svg xmlns="http://www.w3.org/2000/svg" viewBox="0 0 100 102" fill="#7a6fa8">
  <!--
    Single continuous outer path traces the rounded mitt body + 3 toe bumps
    without overlapping subpaths. Pad subpaths use evenodd to punch holes.
  -->
  <path fill-rule="evenodd" d="
    M 50,88
    C 68,88 85,80 86,65
    C 87,55 88,48 89,42
    C 90,33 85,22 76,22
    C 67,22 64,33 65,42
    C 64,43 63,44 62,44
    C 61,38 57,14 50,14
    C 43,14 39,38 38,44
    C 37,44 36,43 35,42
    C 36,33 33,22 24,22
    C 15,22 10,33 11,42
    C 12,48 13,55 14,65
    C 15,80 32,88 50,88 Z
    M 50,53 C 61,53 69,60 69,69 C 69,78 61,85 50,85
    C 39,85 31,78 31,69 C 31,60 39,53 50,53 Z
    M 26,39 C 31,39 34,43 34,47 C 34,51 31,54 26,54
    C 21,54 18,51 18,47 C 18,43 21,39 26,39 Z
    M 50,28 C 56,28 59,32 59,36 C 59,40 56,43 50,43
    C 44,43 41,40 41,36 C 41,32 44,28 50,28 Z
    M 74,39 C 79,39 82,43 82,47 C 82,51 79,54 74,54
    C 69,54 66,51 66,47 C 66,43 69,39 74,39 Z
  "/>
</svg>
